<?xml version="1.0" standalone="no"?><!DOCTYPE svg PUBLIC "-//W3C//DTD SVG 1.1//EN" "http://www.w3.org/Graphics/SVG/1.1/DTD/svg11.dtd"><svg class="icon" height="512" viewBox="0 0 1024 1024" version="1.1" xmlns="http://www.w3.org/2000/svg"><path d="M967.79286 470.544843l-0.514723 0.061398c-1.833765-17.96721-16.08228-32.215726-33.988092-33.988092l-7.783267 0-13.156648 0 0-0.288572c-22.429849 0-41.885969-12.929474-51.210335-31.810496-2.230808-4.635577-3.950985-9.55461-4.862751-14.81952-4.234441-11.729136-8.983605-23.171746-14.362102-34.328853 0-0.057305 0-0.057305-0.056282-0.057305-2.690272-3.950985-4.867868-8.241708-6.470365-12.81691l0-0.060375c-2.112104-5.949502-3.261277-12.415774-3.261277-19.049868 0-15.793708 6.351662-30.099529 16.766872-40.397059l-0.056282 0 0 0 11.611455-11.615549c0.173962-0.113587 0.288572-0.227174 0.458441-0.398066 0.118704-0.173962 0.288572-0.287549 0.402159-0.458441 13.558807-13.959943 14.248516-35.703153 2.173502-50.523697l0.231267-0.169869c-8.9263-10.698666-18.255783-20.939915-28.03859-30.670533-10.014074-10.07138-20.481474-19.62292-31.41243-28.662807l-0.113587 0.113587c-13.387915-10.987239-32.612769-11.328-46.460148-1.200338l-8.354272 8.350179-7.897877 7.783267-0.340761-0.343831c-16.649192 16.705474-41.081651 20.939915-61.681828 12.646018-2.802836-1.087774-5.491061-2.462075-8.123005-4.007267-13.161764-6.351662-26.720571-11.95631-40.681538-16.762779-2.462075-0.629333-4.862751-1.488911-7.268544-2.462075 0 0-0.056282 0-0.056282-0.057305-6.810103-2.689249-13.275351-6.922666-18.823718-12.472056-9.329483-9.329483-14.706957-21.115923-16.309454-33.242102-0.62831-4.749164-0.62831-9.555633 0-14.305821l0-9.844206c0-18.766412-13.558807-34.32783-31.41243-37.531801-2.230808-0.228197-4.405333-0.402159-6.692423-0.572028l0.057305 0c-12.588713-0.973164-25.287943-1.545192-38.10383-1.545192-12.81691 0-25.51921 0.572028-38.109969 1.602498l0 0c-2.230808 0.169869-4.460592 0.343831-6.691399 0.571005-17.854647 3.14769-31.413454 18.766412-31.413454 37.47552l0 16.994046c0 24.546046-15.448854 45.488007-37.134759 53.553707-1.37123 0.577145-2.802836 1.030469-4.234441 1.432629-15.273868 5.1503-30.03813 11.271718-44.229341 18.368346-0.113587 0-0.113587 0.057305-0.170892 0.057305-1.143033 0.62831-2.230808 1.143033-3.431146 1.715061-7.268544 3.317559-15.278985 5.1503-23.804149 5.1503-15.789615 0-30.093389-6.407943-40.396035-16.765849l-0.057305 0.112564-12.069897-12.013615c-13.275351-13.275351-33.760918-14.706957-48.577369-4.40431-1.720178 1.370207-3.435239 2.801812-5.036713 4.173043l-0.227174 0.231267c-9.726525 8.237615-19.11229 16.820084-28.095895 25.803689-8.983605 8.983605-17.566074 18.307971-25.746384 27.981285 0 0-0.057305 0-0.057305 0.057305-1.488911 1.715061-2.920516 3.431146-4.348028 5.203512-10.41521 14.877849-8.9263 35.419697 4.348028 48.695049l12.013615 12.013615c17.282618 17.339924 21.171182 42.971697 11.616572 64.026222-0.572028 1.319042-1.201361 2.632967-1.947352 3.889587-7.036253 14.19121-13.156648 28.955472-18.251689 44.058448-0.458441 1.659803-1.029446 3.204995-1.658779 4.749164l0 0.057305c-2.745531 7.207146-7.037277 14.07353-12.929474 19.854187-11.158131 11.157107-25.746384 16.766872-40.397059 16.766872l0 0.169869-16.994046 0c-18.766412 0-34.328853 13.501502-37.532825 31.356149-0.227174 2.173502-0.458441 4.40431-0.62831 6.691399l0 0c-1.030469 12.301164-1.545192 25.576515-1.545192 38.109969l0 0 0 0.282433 0 0.344854 0 0c0 12.642948 0.514723 25.118074 1.545192 37.419238L55.80805 550.879496c0.169869 2.230808 0.401136 4.461615 0.62831 6.696516 3.203972 17.850553 18.710131 31.40936 37.420261 31.40936l0.056282 0 17.051351 0 0 0c24.319895 0 45.089941 15.22168 53.326533 36.677341l0 0.057305c0.572028 1.431605 1.030469 2.863211 1.375324 4.291746 0.056282 0.057305 0.056282 0.173962 0.169869 0.288572 5.094018 15.217586 11.271718 29.980825 18.307971 44.229341 0.056282 0.057305 0.11768 0.169869 0.173962 0.227174 0.62831 1.087774 1.143033 2.230808 1.715061 3.435239 3.317559 7.263427 5.207605 15.331173 5.207605 23.800056 0 15.793708-6.407943 30.094412-16.766872 40.396035l0.057305 0.057305-11.612479 11.616572c-0.173962 0.112564-0.287549 0.283456-0.458441 0.397043-0.173962 0.173962-0.288572 0.288572-0.401136 0.458441-12.7023 13.105482-14.135952 33.072233-4.290723 47.721885 1.658779 2.000564 3.317559 4.003174 4.976338 5.950526 8.124028 9.611915 16.650215 18.822694 25.576515 27.750017l0 0c8.9263 8.9263 18.194384 17.509792 27.807323 25.632797 1.946328 1.659803 3.89368 3.261277 5.835915 4.863774 13.219069 8.9263 30.78412 8.581446 43.714617-0.860601l8.354272-8.350179 7.836479-7.840572 0.343831 0.288572c17.339924-17.282618 43.029002-21.172205 64.139809-11.559267 1.087774 0.458441 2.173502 1.030469 3.203972 1.545192 0.057305 0.057305 0.173962 0.057305 0.288572 0.169869 14.362102 7.154957 29.238928 13.331633 44.627407 18.539238 1.318018 0.401136 2.631944 0.856507 3.89368 1.313925 7.495718 2.806929 14.531971 7.153934 20.596084 13.160741 11.157107 11.158131 16.766872 25.746384 16.766872 40.397059l0.169869 0 0 16.819061c0 19.684318 14.933107 35.931351 34.157961 37.878702l0 0.231267c13.790074 1.313925 27.750017 1.942235 41.942251 1.942235 14.187117 0 28.14706-0.62831 41.99444-1.942235l-0.057305-0.231267c19.167548-1.946328 34.215266-18.194384 34.215266-37.878702l0-16.994046c0-22.943548 13.506619-42.683125 32.957623-51.78134 3.946892-1.88493 8.124028-3.261277 12.471033-4.177136 12.532431-4.40431 24.722054-9.43693 36.563754-15.217586 3.432169-2.230808 7.150864-4.121877 10.983145-5.491061 6.181793-2.349511 12.935614-3.662413 20.028149-3.662413 14.475689 0 27.750017 5.434779 37.878702 14.418384 1.715061 1.488911 3.373841 3.090385 4.919033 4.862751l9.725502 9.782807 0.061398-0.056282c13.387915 13.387915 34.385135 14.706957 49.262984 3.949962 0.057305 0 0.112564-0.061398 0.169869-0.174985 1.257643-1.029446 2.462075-2.003634 3.663436-3.027963 10.014074-8.469905 19.62599-17.282618 28.836769-26.494421 9.210779-9.210779 18.081821-18.822694 26.493397-28.836769l3.261277-3.950985c10.467399-14.358009 9.555633-34.328853-2.574638-47.774073l-0.057305-0.057305-2.745531-2.689249 0 0L849.409636 742.442416l0-0.057305c-17.050328-17.050328-21.057595-42.168402-12.07399-62.995753 0.859577-1.946328 1.772366-3.89368 2.859118-5.722328 6.752798-13.732769 12.647041-27.977191 17.683754-42.626843 0.572028-1.943258 1.144056-3.89061 1.943258-5.722328 2.745531-7.150864 7.037277-13.785981 12.815887-19.565615 11.101849-11.101849 25.750477-16.71059 40.397059-16.71059l0-0.057305 16.422018 0 0-0.227174c20.36891 0 37.018102-16.020882 37.991266-36.106336l0.572028 0.057305c1.144056-13.213953 1.715061-26.545586 1.715061-39.933501C969.735096 498.527151 969.04948 484.45362 967.79286 470.544843L967.79286 470.544843zM745.960543 512.775666 745.960543 512.775666c0 26.663266-4.40431 52.29504-12.646018 76.152401-3.091408 9.098215-6.810103 17.96721-10.926864 26.493397-11.388375 23.403013-26.663266 44.6315-44.801369 62.938448-18.194384 18.251689-39.365566 33.529651-62.712297 45.028543-8.638751 4.291746-17.565051 8.010441-26.719548 11.158131-23.856337 8.354272-49.489134 12.81691-76.152401 12.929474l-0.690732 0c-26.431999 0-51.78134-4.348028-75.466786-12.414751-9.555633-3.203972-18.766412-7.037277-27.636431-11.385305-23.284309-11.388375-44.342927-26.493397-62.48103-44.630477-18.306948-18.195408-33.585933-39.310308-45.027519-62.708204-4.409426-8.812713-8.241708-17.96721-11.446703-27.351951-8.123005-23.74275-12.58462-49.149397-12.640901-75.637678 0.057305-26.436092 4.460592-53.043077 12.640901-76.728522 3.204995-9.442046 7.037277-18.596544 11.389398-27.405163 11.497868-23.345708 26.719548-44.517913 45.028543-62.71332 18.307971-18.194384 39.536458-33.416064 62.938448-44.857651 8.752338-4.234441 17.850553-8.010441 27.177989-11.158131 23.686469-8.066723 49.03581-12.414751 75.467809-12.414751l0.684592 0c26.724665 0.113587 52.356438 4.6366 76.213799 12.874215 9.154497 3.146667 18.081821 6.922666 26.663266 11.157107 23.403013 11.497868 44.574195 26.834158 62.768579 45.028543 18.081821 18.194384 33.18582 39.310308 44.627407 62.480007 4.234441 8.700149 8.010441 17.679661 11.157107 26.950815 8.185426 23.800056 12.647041 49.376571 12.647041 75.92625l0 0.288572L745.960543 512.775666zM745.960543 512.775666" /></svg>